<svg xmlns="http://www.w3.org/2000/svg" fill="none" viewBox="0 0 293 32"><path fill="#FF2636" fill-rule="evenodd" d="M27.031 2.61121V1.47202c0-.812942-.6611-1.47226414-1.4763-1.47226414h-3.7268c-.8154 0-1.4763.65932214-1.4763 1.47226414v.81669H5.22112c-1.93786 0-4.821096 1.2806-4.821096 4.80834V26.9801c0 1.9328 1.284056 4.8083 4.821096 4.8083H25.1598c1.9381 0 4.8213-1.2806 4.8213-4.8083V7.09705c0-1.54273-.8206-3.68347-2.9501-4.48584z" clip-rule="evenodd"/><path fill="#FFFFFE" fill-rule="evenodd" d="M24.6605 16.158h-2.4398c-.4882 0-.8839.3948-.8839.8815 0 .4867.3957.8815.8839.8815h2.4398c.4879 0 .8839-.3948.8839-.8815 0-.4867-.396-.8815-.8839-.8815zM20.8055 14.5465c.1985.4449.7209.6447 1.167.4465l2.2287-.9896c.4458-.1977.6465-.719.448-1.1636-.1986-.4446-.721-.6447-1.167-.4467l-2.2288.9898c-.446.198-.6465.7187-.4479 1.1636zM20.5513 12.419l1.6327-1.8082c.3266-.3617.2972-.91907-.0655-1.24486-.3627-.32555-.9216-.29642-1.2483.0653l-1.6324 1.80816c-.3266.3617-.2974.9191.0653 1.2449.3629.3255.9218.2964 1.2482-.0653z" clip-rule="evenodd"/><path fill="#FFFFFE" fill-rule="evenodd" d="M18.2037 23.4351c-.151-.4632-.6493-.7164-1.1136-.5658-.0007.0002-.0011.0004-.0016.0004-.598.1936-1.2353.2995-1.8978.2995-3.3943 0-6.14615-2.7444-6.14615-6.1298 0-3.3851 2.75185-6.1293 6.14615-6.1293.6625 0 1.2998.1057 1.8976.299.0004.0002.0011.0005.0016.0007.4642.1506.9628-.1029 1.1138-.5658l.7536-2.31412c.151-.46296-.1031-.96021-.5673-1.11054v-.00047c-1.0078-.32649-2.0825-.505-3.1993-.505-5.71821 0-10.35348 4.62303-10.35348 10.32553 0 5.7028 4.63527 10.3256 10.35348 10.3256 1.1168 0 2.1915-.1785 3.1993-.5048V26.86c0-.0003 0-.0003.0002-.0003.4642-.1505.7181-.6475.5674-1.1107l-.7539-2.3139z" clip-rule="evenodd"/><path fill="#FFFFFE" fill-rule="evenodd" d="M20.5516 21.66c-.3267-.3618-.8856-.3909-1.2483-.0651-.3629.3258-.3919.8829-.0654 1.2449l1.6326 1.8081c.3266.3618.8853.3909 1.2482.0651.3627-.3256.3919-.8832.0653-1.2449L20.5516 21.66zM24.2012 20.0757l-2.2287-.9898c-.4461-.198-.9685.0021-1.167.4468-.1985.4449.0021.9658.448 1.1638l2.2287.9896c.4461.198.9684-.0019 1.167-.4467.1985-.4444-.0021-.9657-.448-1.1637z" clip-rule="evenodd"/><path fill="#6D6E71" fill-rule="evenodd" d="M89.4081 11.8564c-1.4051 0-2.6119.4945-3.5878 1.4702-.9513.951-1.4333 2.1581-1.4333 3.5876s.482 2.6366 1.4333 3.5877c.9759.9757 2.1827 1.4701 3.5878 1.4701 1.3802 0 2.5748-.4944 3.5506-1.4701.9757-.976 1.4703-2.1831 1.4703-3.5877 0-1.4046-.4946-2.6117-1.4703-3.5876-.9758-.9757-2.1704-1.4702-3.5506-1.4702zm0 14.0434c-2.5161 0-4.6871-.8764-6.453-2.6042-1.7301-1.7299-2.6072-3.8768-2.6072-6.3814 0-2.5177.8775-4.6521 2.6072-6.3442 1.7659-1.72807 3.9369-2.60442 6.453-2.60442 2.529 0 4.6879.87659 6.4169 2.60562 1.7527 1.6782 2.6426 3.8133 2.6426 6.343 0 2.5528-.8648 4.6402-2.6438 6.3814-1.7278 1.7278-3.8867 2.6042-6.4157 2.6042zM107.823 25.8997c-2.062 0-3.772-.6647-5.083-1.9752-1.336-1.336-2.013-3.0713-2.013-5.1576V9.72573c0-.68657.518-1.20449 1.204-1.20449h1.631c.664 0 1.204.54047 1.204 1.20449v9.11517c0 1.8509 1.229 3.0942 3.057 3.0942 1.851 0 3.094-1.2433 3.094-3.0942V9.72573c0-.68657.518-1.20449 1.204-1.20449h1.631c.664 0 1.204.54047 1.204 1.20449v9.04117c0 2.0863-.677 3.8216-2.013 5.1572-1.311 1.3109-3.033 1.9756-5.12 1.9756zM122.901 25.8998c-2.161 0-3.996-.7395-5.454-2.1979-.601-.6015-.629-1.2263-.082-1.8574l.373-.4106c.328-.3723.685-.5623 1.057-.5623.311 0 .631.1336.951.3974 1.039.8604 2.088 1.2961 3.118 1.2961 1.2 0 1.945-.6603 1.945-1.7231 0-.9983-.687-1.6186-2.827-2.5525-3.114-1.2754-4.695-3.0974-4.695-5.4141 0-2.8449 2.423-4.90982 5.762-4.90982 1.596 0 2.995.39648 4.277 1.212.311.21398.511.52098.568.86692.062.377-.045.7728-.302 1.115l-.334.4447c-.305.4075-.658.614-1.047.614-.24 0-.497-.0797-.764-.2368-.806-.4766-1.563-.718-2.25-.718-1.283 0-2.019.547-2.019 1.5009 0 .8521.851 1.6136 2.601 2.3284 3.45 1.4781 4.921 3.1421 4.921 5.5642 0 1.5108-.555 2.7745-1.649 3.7553-1.077 1.0004-2.436 1.4876-4.15 1.4876zM158.927 25.8903c-.663 0-1.204-.5099-1.204-1.1363V3.36979c0-.64734.518-1.1359 1.204-1.1359h1.631c.664 0 1.204.50946 1.204 1.1359V24.754c0 .6158-.551 1.1363-1.204 1.1363h-1.631zM151.503 25.8903c-.664 0-1.204-.5099-1.204-1.1363V3.36979c0-.64734.518-1.1359 1.204-1.1359h1.631c.664 0 1.204.50946 1.204 1.1359V24.754c0 .6158-.551 1.1363-1.204 1.1363h-1.631zM80.2694 8.79484c-.039-.01879-.0796-.03711-.1223-.05426-.5929-.31592-1.2553-.47447-1.9862-.47447-1.4829 0-2.7083.69198-3.6764 2.07519 0 0-.2666.331-.2666 0v-.71144c0-.27646-.1036-.51886-.3113-.72627-.2074-.2074-.4495-.31146-.7265-.31146H71.283c-.2774 0-.5191.09913-.7263.29643-.2079.19777-.3112.43501-.3112.7117V24.8424c0 .2967.1033.5436.3112.7413.2072.1976.4489.2965.7263.2965h1.9763c.2652 0 .5294-.0888.7232-.2697.2161-.202.3241-.458.3241-.7681v-7.7415c0-1.5611.3359-2.8062 1.0084-3.7357.6713-.9285 1.4824-1.3933 2.4308-1.3933.2431 0 .4942.0357.7521.1043.3322.0883.6793-.0818.8397-.3852l1.1644-2.20301c.135-.25532.0279-.56772-.2326-.69315zM53.404 16.9323c.004 1.4173.4843 2.6143 1.4274 3.5571.9727.9724 2.1755 1.4652 3.575 1.4652 1.3757 0 2.5661-.4928 3.5387-1.4652.9673-.9675 1.4601-2.1642 1.4641-3.5571.0014-1.418-.4916-2.6208-1.4638-3.5935-.9727-.9722-2.1628-1.465-3.5383-1.465-1.4 0-2.6028.4928-3.5757 1.4652-.9475.948-1.4276 2.1509-1.4276 3.5752l-.1774.0186.1776-.0005zM57.8516 25.9c-2.3966 0-4.4323-.878-6.0509-2.61-1.6238-1.737-2.4487-3.8754-2.4532-6.3567-.0002-2.537.8769-4.6714 2.6068-6.3636 1.7659-1.728 3.9367-2.60412 6.4528-2.60412 2.529 0 4.688.87682 6.417 2.60532 1.7527 1.6783 2.6432 3.8134 2.6432 6.3433l-.0007 7.7714c0 .6582-.5558 1.2142-1.2139 1.2142h-1.3694c-.6997 0-1.1732-.4665-1.1732-1.2287l-.0407-1.4591c-.0035-.0266-.0218-.1184-.0944-.1184-.0496 0-.1325.0385-.217.1473-1.313 1.7632-3.1668 2.6591-5.5064 2.6591zM139.18 11.4858c-2.132 0-3.626.9877-4.441 2.9363-.038.0669-.018.1142-.007.132.028.051.084.0815.149.0815h8.56c.108 0 .154-.0247.164-.0387.011-.0158.018-.071-.024-.1809-.788-1.9705-2.228-2.9302-4.401-2.9302zm.111 14.414c-2.516 0-4.687-.8764-6.453-2.6042-1.73-1.7299-2.607-3.8768-2.607-6.3814 0-2.5043.864-4.6385 2.569-6.3428 1.729-1.72923 3.875-2.60582 6.38-2.60582 2.504 0 4.614.83948 6.269 2.49452 1.679 1.642 2.531 3.6642 2.531 6.0095 0 .731-.556 1.2416-1.352 1.2416h-12.08c-.048 0-.111.0068-.14.0395-.031.0345-.041.1136-.028.2175.177 1.1382.706 2.1003 1.615 2.9365.923.7808 2.033 1.1787 3.296 1.1787 1.571 0 2.851-.5873 3.914-1.796.308-.3596.671-.5426 1.079-.5426.248 0 .513.0698.788.2072l1.033.4794c.399.1889.668.5052.738.8681.063.3228-.039.6563-.278.9154-1.763 2.4397-4.214 3.6849-7.274 3.6849zM48.407 24.7271c.0139-.0461.0231-.0935.0273-.1417-.0042.0482-.0134.0956-.0273.1417zm-.5045.5033h-.0002v.0003-.0003h.0002c.2032-.0636.3603-.2003.4501-.3704-.0898.1701-.2469.3068-.4501.3704zm-3.9146.3594c.0627.0073.1247.0167.1879.0228-.0632-.0061-.1252-.0155-.1879-.0228zm-.3432-.046c.0261.004.0517.0094.0778.0134-.0261-.004-.0517-.0094-.0778-.0134zm1.4575.1139c-.0446 0-.0886-.0026-.1329-.0033.0446.0007.0885.0033.1331.0033h-.0002zm.8075-17.41863c-.0274-.00235-.0542-.00728-.0817-.00939.0275.00211.0543.00704.0817.00939zm1.322 3.76493c.0101-.003.0195-.0077.0293-.0112-.0101.0035-.0192.0082-.0293.0112zm-.2063 9.8199c-.0157-.0005-.0312 0-.0469.0005.0084-.0003.0169-.0038.0253-.0038.0073 0 .0141.0031.0216.0033zm.2356.0425c-.0096-.0035-.019-.008-.0289-.011.0101.003.0191.0075.0289.011zm.2013.1015c-.0096-.0068-.0202-.012-.03-.0183.0101.0063.0202.0115.03.0183zm.1748.1764c-.0087-.012-.0169-.0242-.0261-.0357.0092.0117.0174.0237.0261.0357zm.9658 2.0785l-.6598-1.9559c-.1334-.3956-.5108-.6615-.9393-.6615-.1028 0-.205.0156-.3037.0466-.0021.0007-.0044.0014-.0065.0023-.5149.1602-1.0502.2415-1.5912.2415-1.3808 0-2.6786-.5175-3.6541-1.4573-.9733-.9376-1.5096-2.1837-1.5096-3.5087 0-2.7383 2.3162-4.9659 5.1635-4.9662.5409 0 1.0762.0816 1.5906.2415.0022.0007.004.0012.0059.0019.0998.0312.2018.047.3047.047.4284 0 .8059-.2659.9395-.6615l.6596-1.95609c.081-.24053.0622-.49796-.0534-.72486-.1195-.23442-.3264-.40776-.5827-.48809-.9257-.28985-1.8894-.43689-2.864-.43689-5.1151.00024-9.276 4.01203-9.276 8.94323.0002 4.9314 4.1612 8.943 9.2758 8.943.9745 0 1.9383-.1468 2.8644-.4366.0054-.0017.0106-.0035.0155-.0056.2518-.0841.451-.2547.5675-.483.1156-.2269.1344-.4841.0533-.7248z" clip-rule="evenodd"/><g clip-path="url(#clip0)"><path fill="#fff" stroke="#231F20" stroke-miterlimit="10" stroke-width=".192269" d="M278.149 2.30322c-7.568 0-13.697 6.12926-13.697 13.69688 0 7.5675 6.129 13.6968 13.697 13.6968 7.567 0 13.696-6.1293 13.696-13.6968 0-7.56762-6.129-13.69688-13.696-13.69688z"/><path fill="#EA8623" d="M284.748 18.2469c-.357.5265-.705 1.0435-1.053 1.5511-.395.5829-.79 1.1657-1.184 1.7392-.019.0282-.047.0658-.066.094-.32.4324-.78.4324-1.081-.0188-.245-.3667-.48-.7333-.705-1.1093-.311-.5077-.235-1.1939.169-1.6545.865-.9777 1.72-1.946 2.585-2.9237.085-.094.094-.1598.038-.2726-.593-1.1845-1.175-2.3784-1.768-3.5628-.188-.3667-.216-.7239.047-1.0717.264-.3573.649-.4137 1.053-.3384.395.0752.705.2726.931.6204.498.7521 1.006 1.5041 1.504 2.2656.075.1128.113.1222.207.0094.742-.8649 1.485-1.7204 2.237-2.5758.292-.3385.658-.5359 1.119-.5359.451 0 .705.3291.62.7709-.037.1786-.113.329-.216.4794-.846 1.2409-1.683 2.4818-2.529 3.7133-.075.1034-.075.1786 0 .2914 1.11 1.6452 2.209 3.2997 3.309 4.9542.029.0376.047.0752.076.1128.3.47.122.9401-.414 1.0905-.216.0658-.433.1222-.649.1786-.319.0846-.63.1692-.949.2632-.574.1504-1.109-.1034-1.392-.6298-.601-1.1281-1.222-2.2562-1.833-3.3843-.018-.0188-.037-.0282-.056-.0564z"/><path fill="#492C77" d="M272.095 16.2916c0-.5923-.066-1.1469-.226-1.6922-.179-.611-.442-1.1845-.921-1.6263-.611-.564-1.363-.5734-1.984-.0188-.301.2632-.526.5922-.686.9589-.592 1.3443-.63 2.7262-.207 4.1269.169.5546.433 1.0529.856 1.4571.62.5828 1.381.5922 2.011.0282.292-.2632.508-.5922.677-.9401.339-.7332.47-1.5229.48-2.2937zm2.472-.0376c-.038 1.5981-.508 3.0364-1.673 4.1833-.94.9306-2.069 1.3819-3.403 1.2315-1.157-.1317-2.087-.7051-2.83-1.5888-.846-1.0058-1.26-2.1809-1.326-3.4876-.075-1.3725.245-2.651 1.035-3.7885.667-.9683 1.56-1.6545 2.726-1.899 1.429-.3008 2.67.1129 3.722 1.0999.978.9119 1.495 2.0682 1.683 3.3843.047.282.066.5734.066.8649z"/><path fill="#BBBF32" d="M278.327 18.4536c-.648 0-1.306.0094-1.955 0-.63-.0094-1.194-.423-1.203-1.1657-.038-2.3501-.085-4.7003-.123-7.0411v-.1974c.029-.43245.301-.70507.734-.71447.376-.0094.761-.0094 1.137 0 .423.0094.658.25382.705.69567.057.5452.028 1.0999.028 1.6451.019 1.1657.019 2.3314.029 3.4877 0 .4794.216.7238.705.7426.601.0282 1.203.0188 1.814.0282.085 0 .179 0 .263.0094.423.0376.611.2444.602.6675-.01.376-.028.752-.038 1.1375 0 .0658-.009.1316-.028.1974-.094.3854-.244.5076-.639.4888-.423-.0188-.846 0-1.269 0h-.743v.0188h-.019z"/><path fill="#58595A" d="M248.668 17.946c0 1.0811.592 1.3631 1.504 1.2127h.263v1.3631c-.225.0564-.733.0846-1.071.0846-1.504 0-2.294-.893-2.294-2.4536V8.2915h1.589v9.6545h.009zM197.34 10.6417V9.17517h-7.182V20.55h1.645v-4.7097h4.776v-1.4665h-4.776v-3.7321h5.537z"/><path fill="#58595A" fill-rule="evenodd" d="M207.098 16.0377c0-2.8954-1.965-4.5029-4.362-4.5029-2.369 0-4.362 1.6075-4.362 4.5029v.3008c0 2.8766 1.974 4.503 4.362 4.503s4.362-1.6358 4.362-4.503v-.3008zm-1.617.141c0 1.8331-.893 3.2903-2.745 3.2903-1.861 0-2.754-1.4572-2.745-3.2903 0-1.8519.893-3.2902 2.745-3.2902s2.745 1.4383 2.745 3.2902z" clip-rule="evenodd"/><path fill="#58595A" d="M210.981 20.55h-1.599v-8.7521h1.072l.404 1.5418h.038c.348-1.0529 1.457-1.6076 2.576-1.6076.103 0 .423.0188.545.0376v1.5794h-.498c-2.35 0-2.538 1.4665-2.538 3.0458V20.55zM215.831 20.55h1.598v-5.3584c.019-1.3819.753-2.2561 1.946-2.2561 1.241 0 1.852.6956 1.852 2.1151V20.55h1.561v-5.3772c0-1.4007.808-2.2373 1.965-2.2373 1.25 0 1.842.6956 1.842 2.1151V20.55h1.598v-5.9694c0-1.946-1.137-3.0458-3.027-3.0458-1.053 0-2.106.5076-2.717 1.5041h-.037c-.489-.9307-1.42-1.5041-2.679-1.5041-.893 0-1.768.4042-2.36 1.2973h-.028l-.32-1.0341h-1.194v8.752z"/><path fill="#58595A" fill-rule="evenodd" d="M238.299 18.0965l-.002.0094h-1.568c-.348.893-1.053 1.3631-2.19 1.3631-1.617 0-2.473-1.1939-2.614-2.8015h6.496c.019-.2632.019-.4042.019-.6486 0-2.4724-1.382-4.4841-3.995-4.4841-2.444 0-4.146 1.8237-4.146 4.5217v.2444c0 2.7262 1.767 4.5312 4.202 4.5312 1.924 0 3.37-.9836 3.796-2.7262h.002v-.0094zm-3.798-5.2174c-1.542 0-2.312.9964-2.538 2.4723h4.851c-.113-1.1938-.752-2.4723-2.313-2.4723z" clip-rule="evenodd"/><path fill="#58595A" d="M240.715 20.55h1.608v-4.1551c0-1.5793.188-3.0458 2.538-3.0458h.489v-1.5794c-.123-.0188-.442-.0376-.546-.0376-1.118 0-2.228.5547-2.575 1.6076h-.038l-.404-1.5418h-1.072V20.55zM250.614 12.0236l3.375 8.1222-1.392 3.3278v.2256h1.664l4.832-11.6756v-.2257h-1.598l-2.134 5.5653c-.113.2632-.357 1.0152-.442 1.3161h-.037c-.085-.3009-.367-1.0905-.47-1.3349l-2.134-5.5465h-1.664v.2257zM175.31 0h1v32h-1z"/></g><defs><clipPath id="clip0"><path fill="#fff" d="M175.2 0h117v32h-117z"/></clipPath></defs></svg>